<?xml version="1.0" encoding="utf-8"?>
<!-- Generator: Adobe Illustrator 26.0.0, SVG Export Plug-In . SVG Version: 6.00 Build 0)  -->
<svg version="1.1" id="图层_1" xmlns="http://www.w3.org/2000/svg" xmlns:xlink="http://www.w3.org/1999/xlink" x="0px" y="0px"
	 viewBox="0 0 3599 780.97" style="enable-background:new 0 0 3599 780.97;" xml:space="preserve">
<path class="st0" d="M0,309.47l71,192l593-123l-22-104L0,309.47z"/>
<path class="st0" d="M1054.5,572.97l86,58l220-66L1221,674.47l-113.5-20.5c0,0,16.28,44.3,16,44c-0.32-0.34,177,83,177,83l65-68
	l-68.5-16.5l140.5-173.5L1054.5,572.97z"/>
<path class="st0" d="M1183,495.47l72-11l43,38l-63,14L1183,495.47z"/>
<path class="st0" d="M1257.5,438.97l253,103l133-32l-345-98L1257.5,438.97z"/>
<path class="st0" d="M1283.5,396.97l-293,205l-161-23l408.5-203.5L1283.5,396.97z"/>
<path class="st0" d="M1022,7.18l17,56.55l112,8v56.73l-124,14l1-31l-175,14l13,195l127-23l23-109l132-14l3,30l-102,6l-16,44l116-3
	l5,28l-129,21l5,58l134-17l-2,34l146-7l5-27l131-8l6-58l-146,18v-40l119-16l7-44l-131,12l-6-39l162-11l19,98h142l-10-163l-317,28
	l-3-48.92l109-5.82L1408,0L1022,7.18z"/>
<path class="st0" d="M1884,38.47l-70,133l215,85l41-87L1884,38.47z"/>
<path class="st0" d="M1966,283.47l-146,340h145l71-312L1966,283.47z"/>
<path class="st0" d="M2226,4.47l-82,235l317-11l-36,85l66,22l148-200h-322l51-104L2226,4.47z"/>
<path class="st0" d="M2269,289.47l-284,408l166,79l189-470L2269,289.47z"/>
<path class="st0" d="M2328,487.47l199,257l142-79l-268-247L2328,487.47z"/>
<path class="st0" d="M3028,70.47l-14,121l360-9l-1-109L3028,70.47z"/>
<path class="st0" d="M2878,273.47l-27,112l652-30l-17-118L2878,273.47z"/>
<path class="st0" d="M3059,402.47l-172,290l131,32l114-312L3059,402.47z"/>
<path class="st0" d="M3258,388.47l30.5,262.5l126,72l184.5-76.5l-63-110l-86,60l-60-16l-54-254L3258,388.47z"/>
</svg>
